<svg width="36" height="35" viewBox="0 0 36 35" fill="none" xmlns="http://www.w3.org/2000/svg">
<circle cx="18" cy="17.4702" r="17.0702" fill="#CA3660"/>
<path d="M17.8191 6.7355C17.8677 6.58572 18.0796 6.58572 18.1283 6.7355L20.4009 13.7299C20.4227 13.7969 20.4851 13.8423 20.5555 13.8423H27.9099C28.0674 13.8423 28.1329 14.0438 28.0055 14.1364L22.0557 18.4592C21.9987 18.5006 21.9748 18.5739 21.9966 18.6409L24.2692 25.6354C24.3179 25.7851 24.1465 25.9097 24.0191 25.8171L18.0692 21.4943C18.0123 21.4529 17.9351 21.4529 17.8781 21.4943L11.9283 25.8171C11.8009 25.9097 11.6295 25.7851 11.6781 25.6354L13.9508 18.6409C13.9725 18.5739 13.9487 18.5006 13.8917 18.4592L7.94188 14.1364C7.81447 14.0438 7.87995 13.8423 8.03744 13.8423H15.3918C15.4623 13.8423 15.5247 13.7969 15.5464 13.7299L17.8191 6.7355Z" fill="#F5F5F5"/>
</svg>
