<svg width="9" height="13" viewBox="0 0 9 13" fill="none" xmlns="http://www.w3.org/2000/svg">
<mask id="mask0_3_2" style="mask-type:luminance" maskUnits="userSpaceOnUse" x="0" y="0" width="9" height="13">
<path d="M9 0H0V12.1406H9V0Z" fill="white"/>
</mask>
<g mask="url(#mask0_3_2)">
<mask id="mask1_3_2" style="mask-type:luminance" maskUnits="userSpaceOnUse" x="0" y="0" width="9" height="13">
<path d="M9 0H0V12.1406H9V0Z" fill="white"/>
</mask>
<g mask="url(#mask1_3_2)">
<path fill-rule="evenodd" clip-rule="evenodd" d="M8.87383 0.0566406H0.211823V11.7253C0.211823 11.9443 0.396262 12.0225 0.621672 11.8992L4.13295 10.6273C4.35836 10.504 4.72726 10.504 4.95266 10.6273L8.46397 11.8992C8.68937 12.0225 8.87383 11.9442 8.87383 11.7252V0.0566406ZM4.541 3.57301C3.90747 3.57301 3.33049 3.81469 2.8972 4.21074L2.29147 3.60518C2.2226 3.53633 2.1048 3.58507 2.1048 3.68242V6.0073C2.1048 7.35167 3.19552 8.44154 4.541 8.44154C5.17451 8.44154 5.7515 8.19985 6.18481 7.8038L6.79051 8.40912C6.8594 8.47796 6.97717 8.42922 6.97717 8.33187V6.0073C6.97717 4.66289 5.88646 3.57301 4.541 3.57301ZM4.54451 7.05004C3.96788 7.05004 3.50043 6.58295 3.50043 6.00676C3.50043 5.43058 3.96788 4.96352 4.54451 4.96352C5.12114 4.96352 5.5886 5.43058 5.5886 6.00676C5.5886 6.58295 5.12114 7.05004 4.54451 7.05004Z" fill="#FAFAFA"/>
</g>
</g>
</svg>
