<svg width="12" height="12" viewBox="0 0 12 12" fill="none" xmlns="http://www.w3.org/2000/svg">
<g clip-path="url(#clip0_1_120)">
<path d="M10.7309 4.68569L7.50703 4.23666L6.06586 1.43658C6.02652 1.35992 5.96174 1.29786 5.88174 1.26013C5.68112 1.16522 5.43734 1.24431 5.33703 1.43658L3.89586 4.23666L0.671978 4.68569C0.583093 4.69786 0.501829 4.73802 0.439612 4.79886C0.364394 4.87296 0.322946 4.97263 0.324374 5.076C0.325803 5.17935 0.369991 5.27798 0.44723 5.35013L2.77976 7.52958L2.22868 10.6071C2.21576 10.6787 2.22403 10.7523 2.25255 10.8197C2.28107 10.8869 2.32869 10.9453 2.39003 10.9879C2.45137 11.0306 2.52396 11.056 2.59958 11.0612C2.6752 11.0664 2.75081 11.0511 2.81785 11.0172L5.70142 9.56424L8.58503 11.0172C8.66377 11.0573 8.75519 11.0707 8.84281 11.0561C9.06374 11.0196 9.21228 10.8189 9.17421 10.6071L8.62315 7.52958L10.9557 5.35013C11.0192 5.29048 11.061 5.21259 11.0737 5.12742C11.108 4.91447 10.9531 4.71733 10.7309 4.68569Z" fill="#F7C852"/>
</g>
<defs>
<clipPath id="clip0_1_120">
<rect width="11" height="10.56" fill="white" transform="translate(0.160004 0.920166)"/>
</clipPath>
</defs>
</svg>
